REM DIRINDEX 1\2,1\3,1\4,1\5
REM DIRNAME folder01,folder02,folder03,folder04,folder05
TITLE ""
FILE "P1Q_j_1705-1718.mp3" MP3
  TRACK 01 AUDIO
    TITLE "3:cjc005_0464"
    INDEX 01 00:00:00
  TRACK 02 AUDIO
    TITLE "0:"
    INDEX 01 00:01:22
  TRACK 03 AUDIO
    TITLE "4:cjc005_0465"
    INDEX 01 00:01:52
  TRACK 04 AUDIO
    TITLE "0:"
    INDEX 01 00:03:43
  TRACK 05 AUDIO
    TITLE "5:cjc005_0466"
    INDEX 01 00:04:03
  TRACK 06 AUDIO
    TITLE "0:"
    INDEX 01 00:07:52
  TRACK 07 AUDIO
    TITLE "3:cjc005_0467"
    INDEX 01 00:08:38
  TRACK 08 AUDIO
    TITLE "0:"
    INDEX 01 00:10:04
  TRACK 09 AUDIO
    TITLE "4:cjc005_0468"
    INDEX 01 00:10:33
  TRACK 10 AUDIO
    TITLE "0:"
    INDEX 01 00:12:28
  TRACK 11 AUDIO
    TITLE "5:cjc005_0469"
    INDEX 01 00:12:52
  TRACK 12 AUDIO
    TITLE "0:"
    INDEX 01 00:16:71
  TRACK 13 AUDIO
    TITLE "3:cjc005_0470"
    INDEX 01 00:17:49
  TRACK 14 AUDIO
    TITLE "0:"
    INDEX 01 00:18:70
  TRACK 15 AUDIO
    TITLE "4:cjc005_0471"
    INDEX 01 00:19:24
  TRACK 16 AUDIO
    TITLE "0:"
    INDEX 01 00:20:43
  TRACK 17 AUDIO
    TITLE "5:cjc005_0472"
    INDEX 01 00:20:71
  TRACK 18 AUDIO
    TITLE "0:"
    INDEX 01 00:24:08
  TRACK 19 AUDIO
    TITLE "3:cjc005_0473"
    INDEX 01 00:24:61
  TRACK 20 AUDIO
    TITLE "0:"
    INDEX 01 00:25:70
  TRACK 21 AUDIO
    TITLE "4:cjc005_0474"
    INDEX 01 00:26:28
  TRACK 22 AUDIO
    TITLE "0:"
    INDEX 01 00:28:04
  TRACK 23 AUDIO
    TITLE "5:cjc005_0475"
    INDEX 01 00:28:33
  TRACK 24 AUDIO
    TITLE "0:"
    INDEX 01 00:32:52
  TRACK 25 AUDIO
    TITLE "3:cjc005_0476"
    INDEX 01 00:33:32
  TRACK 26 AUDIO
    TITLE "0:"
    INDEX 01 00:34:42
  TRACK 27 AUDIO
    TITLE "4:cjc005_0477"
    INDEX 01 00:35:04
  TRACK 28 AUDIO
    TITLE "0:"
    INDEX 01 00:36:70
  TRACK 29 AUDIO
    TITLE "5:cjc005_0478"
    INDEX 01 00:37:18
  TRACK 30 AUDIO
    TITLE "0:"
    INDEX 01 00:41:16
  TRACK 31 AUDIO
    TITLE "3:cjc005_0479"
    INDEX 01 00:41:71
  TRACK 32 AUDIO
    TITLE "0:"
    INDEX 01 00:43:01
  TRACK 33 AUDIO
    TITLE "4:cjc005_0480"
    INDEX 01 00:43:35
  TRACK 34 AUDIO
    TITLE "0:"
    INDEX 01 00:44:65
  TRACK 35 AUDIO
    TITLE "5:cjc005_0481"
    INDEX 01 00:45:14
  TRACK 36 AUDIO
    TITLE "0:"
    INDEX 01 00:49:29
  TRACK 37 AUDIO
    TITLE "3:cjc005_0482"
    INDEX 01 00:50:11
  TRACK 38 AUDIO
    TITLE "0:"
    INDEX 01 00:51:26
  TRACK 39 AUDIO
    TITLE "4:cjc005_0483"
    INDEX 01 00:51:73
  TRACK 40 AUDIO
    TITLE "0:"
    INDEX 01 00:53:47
  TRACK 41 AUDIO
    TITLE "5:cjc005_0484"
    INDEX 01 00:53:74
  TRACK 42 AUDIO
    TITLE "0:"
    INDEX 01 00:58:24
  TRACK 43 AUDIO
    TITLE "3:cjc005_0485"
    INDEX 01 00:59:00
  TRACK 44 AUDIO
    TITLE "0:"
    INDEX 01 01:00:19
  TRACK 45 AUDIO
    TITLE "4:cjc005_0486"
    INDEX 01 01:00:51
  TRACK 46 AUDIO
    TITLE "0:"
    INDEX 01 01:01:62
  TRACK 47 AUDIO
    TITLE "5:cjc005_0487"
    INDEX 01 01:02:12
  TRACK 48 AUDIO
    TITLE "0:"
    INDEX 01 01:05:68
  TRACK 49 AUDIO
    TITLE "3:cjc005_0488"
    INDEX 01 01:06:43
  TRACK 50 AUDIO
    TITLE "0:"
    INDEX 01 01:08:01
  TRACK 51 AUDIO
    TITLE "4:cjc005_0489"
    INDEX 01 01:08:29
  TRACK 52 AUDIO
    TITLE "0:"
    INDEX 01 01:09:46
  TRACK 53 AUDIO
    TITLE "5:cjc005_0490"
    INDEX 01 01:10:00
  TRACK 54 AUDIO
    TITLE "0:"
    INDEX 01 01:12:38
  TRACK 55 AUDIO
    TITLE "3:cjc005_0491"
    INDEX 01 01:13:16
  TRACK 56 AUDIO
    TITLE "0:"
    INDEX 01 01:14:47
  TRACK 57 AUDIO
    TITLE "4:cjc005_0492"
    INDEX 01 01:15:09
  TRACK 58 AUDIO
    TITLE "0:"
    INDEX 01 01:16:28
  TRACK 59 AUDIO
    TITLE "5:cjc005_0493"
    INDEX 01 01:16:52
  TRACK 60 AUDIO
    TITLE "0:"
    INDEX 01 01:20:49
  TRACK 61 AUDIO
    TITLE "3:cjc005_0494"
    INDEX 01 01:21:29
  TRACK 62 AUDIO
    TITLE "0:"
    INDEX 01 01:22:58
  TRACK 63 AUDIO
    TITLE "4:cjc005_0495"
    INDEX 01 01:23:28
  TRACK 64 AUDIO
    TITLE "0:"
    INDEX 01 01:24:34
  TRACK 65 AUDIO
    TITLE "5:cjc005_0496"
    INDEX 01 01:24:65
  TRACK 66 AUDIO
    TITLE "0:"
    INDEX 01 01:28:25
  TRACK 67 AUDIO
    TITLE "3:cjc005_0497"
    INDEX 01 01:29:11
  TRACK 68 AUDIO
    TITLE "0:"
    INDEX 01 01:30:28
  TRACK 69 AUDIO
    TITLE "4:cjc005_0498"
    INDEX 01 01:30:64
  TRACK 70 AUDIO
    TITLE "0:"
    INDEX 01 01:31:73
  TRACK 71 AUDIO
    TITLE "5:cjc005_0499"
    INDEX 01 01:32:23
  TRACK 72 AUDIO
    TITLE "0:"
    INDEX 01 01:37:07
  TRACK 73 AUDIO
    TITLE "3:cjc005_0500"
    INDEX 01 01:37:62
  TRACK 74 AUDIO
    TITLE "0:"
    INDEX 01 01:39:35
  TRACK 75 AUDIO
    TITLE "4:cjc005_0501"
    INDEX 01 01:39:61
  TRACK 76 AUDIO
    TITLE "0:"
    INDEX 01 01:42:53
  TRACK 77 AUDIO
    TITLE "5:cjc005_0502"
    INDEX 01 01:43:00
  TRACK 78 AUDIO
    TITLE "0:"
    INDEX 01 01:46:66
  TRACK 79 AUDIO
    TITLE "3:cjc005_0503"
    INDEX 01 01:47:46
  TRACK 80 AUDIO
    TITLE "0:"
    INDEX 01 01:48:71
  TRACK 81 AUDIO
    TITLE "4:cjc005_0504"
    INDEX 01 01:49:26
  TRACK 82 AUDIO
    TITLE "0:"
    INDEX 01 01:51:05
  TRACK 83 AUDIO
    TITLE "5:cjc005_0505"
    INDEX 01 01:51:28
  TRACK 84 AUDIO
    TITLE "0:"
    INDEX 01 01:55:46
